<svg id="svg" version="1.1" xmlns="http://www.w3.org/2000/svg" xmlns:xlink="http://www.w3.org/1999/xlink" width="400" height="400" viewBox="0, 0, 400,400"><g id="svgg"><path id="path0" d="M163.292 142.000 C 163.269 142.183,163.220 142.446,163.183 142.583 C 163.147 142.721,162.985 143.583,162.825 144.500 C 162.484 146.446,162.548 146.152,162.091 147.833 C 161.891 148.567,161.626 149.917,161.503 150.833 C 161.379 151.750,160.993 153.540,160.644 154.810 C 160.295 156.081,160.077 157.188,160.160 157.271 C 160.242 157.353,160.172 157.678,160.004 157.993 C 159.746 158.475,159.350 160.384,158.862 163.500 C 158.804 163.867,158.579 164.814,158.360 165.604 C 158.142 166.395,157.902 167.445,157.828 167.938 C 157.753 168.430,157.471 169.736,157.201 170.839 C 156.931 171.943,156.630 173.443,156.533 174.173 C 156.435 174.903,156.132 176.310,155.861 177.301 C 155.589 178.291,155.384 179.191,155.405 179.301 C 155.426 179.410,155.335 179.950,155.203 180.500 C 155.070 181.050,154.817 182.100,154.640 182.833 C 154.462 183.567,154.262 184.617,154.194 185.167 C 154.125 185.717,153.842 187.107,153.563 188.257 C 153.284 189.406,153.037 190.456,153.013 190.590 C 152.897 191.257,152.596 192.637,152.306 193.833 C 152.129 194.567,151.931 195.617,151.867 196.167 C 151.764 197.046,150.956 200.771,149.987 204.833 C 149.673 206.150,149.462 207.214,149.126 209.167 C 149.031 209.717,148.747 210.992,148.494 212.000 C 148.241 213.008,147.966 214.208,147.883 214.667 C 147.799 215.125,147.643 215.875,147.536 216.333 C 147.329 217.213,147.078 218.509,146.792 220.167 C 146.697 220.717,146.343 222.264,146.005 223.605 C 145.253 226.587,144.783 226.373,151.829 226.258 L 157.467 226.167 157.900 224.000 C 158.138 222.808,158.401 221.383,158.483 220.833 C 158.565 220.283,158.776 219.357,158.952 218.775 C 159.128 218.193,159.196 217.641,159.103 217.547 C 159.010 217.454,159.057 217.180,159.207 216.939 C 159.358 216.697,159.504 216.350,159.533 216.167 C 159.561 215.983,159.773 214.933,160.004 213.833 C 160.235 212.733,160.459 211.533,160.503 211.167 C 160.546 210.800,160.612 210.500,160.649 210.500 C 160.723 210.500,160.774 210.264,161.474 206.667 C 161.742 205.292,162.176 203.229,162.439 202.083 C 162.702 200.938,162.856 200.000,162.780 200.000 C 162.705 200.000,162.792 199.722,162.974 199.382 C 163.156 199.041,163.475 197.729,163.683 196.465 C 164.108 193.887,164.085 193.993,164.588 192.167 C 164.791 191.433,164.995 190.308,165.044 189.667 C 165.092 189.025,165.232 188.350,165.354 188.167 C 165.476 187.983,165.595 187.608,165.619 187.333 C 165.643 187.058,166.042 185.108,166.506 183.000 C 166.971 180.892,167.414 178.717,167.491 178.167 C 167.569 177.617,167.776 176.690,167.952 176.108 C 168.128 175.526,168.190 174.968,168.089 174.866 C 167.988 174.765,168.064 174.492,168.257 174.258 C 168.451 174.024,168.619 173.683,168.630 173.500 C 168.642 173.317,168.759 172.492,168.892 171.667 C 169.024 170.842,169.103 170.054,169.066 169.917 C 169.030 169.779,169.131 169.667,169.291 169.667 C 169.451 169.667,169.534 170.604,169.477 171.750 C 169.296 175.318,168.997 179.948,168.851 181.422 C 168.774 182.198,168.608 184.858,168.482 187.333 C 168.357 189.808,168.200 192.658,168.133 193.667 C 167.996 195.732,167.765 199.464,167.514 203.667 C 167.421 205.225,167.271 207.239,167.181 208.142 C 167.090 209.046,166.938 211.371,166.842 213.309 C 166.589 218.410,166.361 222.226,166.177 224.430 L 166.015 226.359 168.883 226.263 L 171.751 226.167 172.483 224.000 C 172.885 222.808,173.396 221.496,173.619 221.083 C 173.841 220.671,173.926 220.333,173.807 220.333 C 173.688 220.333,173.809 219.996,174.076 219.583 C 174.554 218.845,175.097 217.115,174.923 216.886 C 174.874 216.822,175.011 216.555,175.228 216.293 C 175.577 215.873,176.652 213.064,176.808 212.167 C 176.839 211.983,177.025 211.533,177.220 211.167 C 177.532 210.579,177.962 209.137,178.039 208.418 C 178.054 208.280,178.233 207.867,178.438 207.500 C 178.642 207.133,178.828 206.758,178.850 206.667 C 178.873 206.575,179.002 206.249,179.138 205.943 C 179.274 205.636,179.415 205.186,179.452 204.943 C 179.489 204.699,179.607 204.350,179.715 204.167 C 179.895 203.861,181.066 200.497,181.195 199.917 C 181.225 199.779,181.287 199.592,181.333 199.500 C 181.379 199.408,181.438 199.221,181.463 199.083 C 181.489 198.946,181.601 198.683,181.711 198.500 C 181.822 198.317,182.102 197.567,182.333 196.833 C 182.564 196.100,182.902 195.313,183.084 195.083 C 183.266 194.854,183.318 194.667,183.199 194.667 C 183.080 194.667,183.215 194.218,183.498 193.670 C 183.782 193.122,184.031 192.560,184.052 192.420 C 184.073 192.281,184.207 191.867,184.349 191.500 C 185.319 189.004,186.044 186.904,186.514 185.233 C 186.813 184.170,187.495 182.334,188.030 181.154 C 188.565 179.974,188.970 178.894,188.931 178.754 C 188.891 178.614,189.046 178.162,189.274 177.750 C 189.503 177.338,189.606 177.000,189.504 177.000 C 189.402 177.000,189.527 176.662,189.782 176.250 C 190.037 175.838,190.593 174.336,191.018 172.914 C 191.470 171.401,191.894 170.494,192.039 170.729 C 192.175 170.950,192.146 171.393,191.974 171.714 C 191.803 172.035,191.636 172.718,191.605 173.232 C 191.573 173.746,191.466 174.317,191.367 174.500 C 191.267 174.683,191.162 174.983,191.134 175.167 C 191.106 175.350,190.898 176.389,190.672 177.475 C 190.446 178.561,190.213 179.761,190.153 180.142 C 189.796 182.423,188.905 186.577,188.680 187.013 C 188.455 187.449,187.990 190.088,187.947 191.167 C 187.940 191.350,187.805 191.741,187.648 192.035 C 187.490 192.329,187.191 193.604,186.983 194.868 C 186.559 197.447,186.582 197.340,186.078 199.167 C 185.876 199.900,185.671 201.025,185.623 201.667 C 185.574 202.308,185.435 202.983,185.313 203.167 C 185.191 203.350,185.071 203.725,185.048 204.000 C 185.024 204.275,184.624 206.225,184.160 208.333 C 183.696 210.442,183.253 212.617,183.175 213.167 C 183.098 213.717,182.891 214.643,182.714 215.225 C 182.538 215.807,182.471 216.359,182.564 216.453 C 182.657 216.546,182.610 216.820,182.459 217.061 C 182.309 217.303,182.162 217.650,182.134 217.833 C 182.106 218.017,181.903 219.033,181.683 220.091 C 181.463 221.150,181.225 222.425,181.155 222.925 C 181.085 223.424,180.872 224.357,180.681 224.998 C 180.490 225.638,180.333 226.201,180.333 226.248 C 180.333 226.295,183.027 226.333,186.318 226.333 L 192.303 226.333 192.552 225.083 C 192.689 224.396,192.766 223.705,192.722 223.548 C 192.679 223.391,192.817 223.054,193.029 222.798 C 193.241 222.543,193.334 222.333,193.234 222.333 C 193.135 222.333,193.199 221.808,193.376 221.166 C 193.554 220.523,193.766 219.586,193.849 219.082 C 193.932 218.579,194.283 216.937,194.628 215.434 C 194.974 213.931,195.178 212.622,195.081 212.526 C 194.984 212.429,195.095 212.121,195.327 211.841 C 195.559 211.562,195.669 211.333,195.571 211.333 C 195.473 211.333,195.600 210.553,195.851 209.599 C 196.103 208.645,196.245 207.800,196.166 207.722 C 196.088 207.643,196.153 207.336,196.312 207.040 C 196.470 206.743,196.690 205.975,196.800 205.333 C 196.911 204.692,197.133 203.612,197.295 202.933 C 197.457 202.255,197.510 201.621,197.414 201.525 C 197.317 201.428,197.447 201.098,197.702 200.790 C 197.958 200.483,198.113 200.176,198.046 200.110 C 197.980 200.043,198.027 199.318,198.150 198.497 C 198.273 197.677,198.379 196.892,198.386 196.753 C 198.393 196.614,198.519 196.275,198.666 196.000 C 198.813 195.725,199.023 194.975,199.134 194.333 C 199.244 193.692,199.467 192.612,199.628 191.933 C 199.790 191.255,199.850 190.628,199.761 190.539 C 199.672 190.450,199.724 190.180,199.875 189.939 C 200.026 189.697,200.199 189.125,200.259 188.667 C 200.319 188.208,200.578 187.008,200.834 186.000 C 201.090 184.992,201.367 183.792,201.451 183.333 C 201.534 182.875,201.690 182.125,201.798 181.667 C 201.905 181.208,202.070 180.421,202.163 179.917 C 202.257 179.412,202.411 178.588,202.506 178.083 C 202.602 177.579,203.043 175.592,203.487 173.667 C 203.931 171.742,204.378 169.679,204.480 169.083 C 204.926 166.494,205.102 165.652,205.862 162.500 C 206.304 160.667,206.671 158.717,206.676 158.167 C 206.691 156.800,207.321 157.849,207.482 159.508 C 207.544 160.152,207.760 160.877,207.961 161.120 C 208.163 161.363,208.243 161.646,208.141 161.748 C 207.461 162.428,213.221 168.981,214.049 168.470 C 214.205 168.373,214.333 168.416,214.333 168.566 C 214.333 168.857,215.455 169.381,217.339 169.968 C 217.993 170.172,219.853 170.273,221.541 170.197 C 224.925 170.044,225.020 170.092,226.319 172.639 C 226.692 173.369,227.363 174.333,227.811 174.781 C 228.259 175.229,228.535 175.687,228.424 175.798 C 228.313 175.909,228.406 176.000,228.631 176.000 C 228.855 176.000,228.946 176.151,228.832 176.336 C 228.718 176.520,228.845 176.756,229.115 176.860 C 229.386 176.963,229.699 177.419,229.813 177.871 C 229.927 178.324,230.165 178.604,230.343 178.494 C 230.521 178.384,230.667 178.500,230.667 178.751 C 230.667 179.002,230.973 179.536,231.346 179.937 C 231.720 180.338,231.908 180.669,231.763 180.672 C 231.618 180.675,231.668 180.787,231.873 180.922 C 232.078 181.056,232.728 181.954,233.318 182.917 C 233.908 183.879,234.537 184.667,234.715 184.667 C 234.893 184.667,234.954 184.805,234.850 184.973 C 234.746 185.142,234.887 185.506,235.164 185.783 C 235.440 186.059,235.667 186.455,235.667 186.663 C 235.667 186.870,235.817 186.947,236.000 186.833 C 236.302 186.647,236.479 187.091,236.370 187.759 C 236.346 187.902,236.554 188.105,236.830 188.212 C 237.107 188.318,237.333 188.618,237.333 188.879 C 237.333 189.141,237.558 189.441,237.833 189.546 C 238.108 189.652,238.333 189.953,238.333 190.216 C 238.333 190.480,238.483 190.876,238.667 191.097 C 240.357 193.139,240.337 192.946,239.091 195.038 C 238.462 196.094,237.917 197.155,237.881 197.396 C 237.844 197.636,237.697 198.021,237.554 198.250 C 237.411 198.479,237.415 198.669,237.564 198.672 C 237.712 198.675,237.651 198.793,237.429 198.934 C 237.013 199.198,236.756 200.486,236.490 203.637 C 236.311 205.746,236.308 205.751,235.097 205.746 C 234.585 205.744,234.017 205.835,233.833 205.949 C 233.650 206.063,233.237 206.178,232.917 206.203 C 232.596 206.229,232.296 206.280,232.250 206.317 C 232.142 206.404,231.353 206.555,229.770 206.792 C 229.071 206.896,228.200 207.050,227.833 207.134 C 225.678 207.629,215.754 209.672,214.923 209.792 C 214.606 209.838,214.246 209.976,214.123 210.099 C 214.000 210.222,213.518 209.912,213.052 209.411 C 212.585 208.910,212.083 208.538,211.935 208.583 C 211.788 208.629,211.667 208.492,211.667 208.278 C 211.667 208.064,211.573 207.983,211.458 208.098 C 211.343 208.213,210.825 208.088,210.308 207.820 C 207.291 206.260,203.196 208.590,202.085 212.500 C 200.676 217.453,205.643 222.720,210.118 221.019 C 210.511 220.869,210.930 220.766,211.048 220.790 C 211.167 220.814,211.595 220.533,212.000 220.167 C 212.405 219.800,212.769 219.575,212.809 219.667 C 212.848 219.758,213.126 219.589,213.425 219.290 C 213.724 218.991,213.879 218.657,213.770 218.548 C 213.661 218.438,213.817 218.255,214.117 218.140 C 214.417 218.024,214.580 217.796,214.478 217.632 C 214.377 217.468,214.878 217.333,215.591 217.333 C 216.305 217.333,216.986 217.236,217.104 217.118 C 217.223 217.000,217.735 216.859,218.243 216.806 C 218.751 216.753,219.542 216.613,220.000 216.495 C 220.458 216.377,221.133 216.231,221.500 216.171 C 221.867 216.110,222.542 215.987,223.000 215.897 C 223.458 215.808,224.433 215.625,225.167 215.491 C 225.900 215.356,226.680 215.104,226.901 214.929 C 227.121 214.754,227.607 214.709,227.981 214.827 C 228.355 214.946,228.837 214.934,229.052 214.801 C 229.267 214.668,229.831 214.518,230.305 214.468 C 230.779 214.418,231.542 214.280,232.000 214.162 C 232.856 213.942,233.206 213.875,235.500 213.497 C 236.233 213.376,236.976 213.140,237.150 212.972 C 237.532 212.604,238.028 212.569,237.929 212.917 C 237.890 213.054,238.035 213.484,238.251 213.873 C 238.467 214.261,238.548 214.674,238.433 214.790 C 238.317 214.905,238.367 215.000,238.544 215.000 C 238.721 215.000,239.044 215.487,239.261 216.083 C 239.957 217.995,245.230 223.087,247.667 224.203 C 250.742 225.610,251.413 225.808,254.500 226.218 C 256.857 226.531,260.403 226.375,260.838 225.940 C 260.963 225.815,261.260 225.787,261.499 225.879 C 261.737 225.971,262.028 225.892,262.144 225.704 C 262.260 225.516,262.575 225.447,262.844 225.550 C 263.116 225.655,263.333 225.550,263.333 225.313 C 263.333 225.080,263.427 224.983,263.542 225.098 C 263.657 225.213,264.220 225.057,264.792 224.751 C 265.365 224.445,265.941 224.188,266.073 224.181 C 266.204 224.173,266.579 223.942,266.906 223.667 C 267.233 223.392,267.950 222.883,268.500 222.535 C 269.050 222.188,269.735 221.663,270.022 221.369 C 270.309 221.074,271.020 220.458,271.602 220.000 C 272.184 219.542,272.662 218.979,272.664 218.750 C 272.665 218.521,272.826 218.333,273.020 218.333 C 273.214 218.333,273.280 218.183,273.167 218.000 C 273.053 217.817,273.094 217.667,273.257 217.667 C 273.421 217.667,273.760 217.254,274.013 216.750 C 274.265 216.246,274.688 215.571,274.954 215.250 C 275.219 214.929,275.310 214.667,275.155 214.667 C 274.999 214.667,275.133 214.476,275.451 214.244 C 275.769 214.011,276.077 213.449,276.136 212.994 C 276.195 212.539,276.440 211.717,276.681 211.167 C 277.709 208.814,276.907 197.333,275.714 197.333 C 275.583 197.333,275.450 196.998,275.419 196.588 C 275.388 196.178,275.206 195.791,275.015 195.727 C 274.823 195.663,274.667 195.415,274.667 195.175 C 274.667 194.934,274.432 194.648,274.146 194.538 C 273.859 194.428,273.718 194.186,273.833 194.000 C 273.948 193.814,273.809 193.572,273.523 193.463 C 273.237 193.353,273.071 193.156,273.152 193.024 C 273.234 192.892,272.444 191.970,271.397 190.975 C 269.580 189.248,269.254 189.000,268.800 189.000 C 268.690 189.000,269.140 188.460,269.800 187.800 C 270.460 187.140,271.000 186.417,271.000 186.193 C 271.000 185.970,271.468 185.272,272.040 184.643 C 272.611 184.015,273.291 183.006,273.550 182.402 C 273.809 181.798,274.240 181.220,274.509 181.117 C 274.777 181.014,274.920 180.806,274.826 180.655 C 274.732 180.503,274.825 180.275,275.032 180.147 C 275.239 180.019,275.525 180.104,275.668 180.336 C 275.865 180.654,276.173 180.671,276.936 180.406 C 277.490 180.212,278.027 180.139,278.130 180.241 C 278.233 180.344,278.522 180.258,278.773 180.050 C 279.023 179.843,279.327 179.771,279.447 179.892 C 279.568 180.012,279.667 179.936,279.667 179.722 C 279.667 179.508,279.903 179.333,280.193 179.333 C 280.849 179.333,283.093 177.098,283.790 175.751 C 285.054 173.306,285.033 170.475,283.735 168.357 C 283.350 167.728,283.098 167.111,283.175 166.986 C 283.391 166.637,281.062 164.640,280.259 164.486 C 279.869 164.410,279.442 164.176,279.312 163.965 C 279.181 163.754,278.908 163.684,278.704 163.810 C 278.500 163.936,278.333 163.901,278.333 163.732 C 278.333 163.255,274.268 163.477,273.333 164.005 C 272.875 164.264,272.382 164.482,272.238 164.488 C 272.094 164.495,271.833 164.725,271.660 165.000 C 271.486 165.275,271.341 165.381,271.338 165.237 C 271.329 164.764,269.765 166.465,268.856 167.935 C 267.896 169.487,267.434 172.814,268.070 173.583 C 268.260 173.813,268.303 174.000,268.167 174.000 C 268.030 174.000,268.060 174.188,268.234 174.417 C 268.953 175.368,268.554 177.406,267.412 178.612 C 266.473 179.603,265.190 181.441,265.125 181.886 C 265.086 182.147,264.688 182.650,264.239 183.002 C 263.791 183.355,263.233 184.103,263.001 184.664 C 262.669 185.466,262.436 185.638,261.910 185.471 C 261.542 185.355,260.765 185.227,260.184 185.188 C 259.602 185.149,258.986 185.032,258.813 184.926 C 258.540 184.759,256.705 184.802,253.583 185.049 C 253.079 185.089,252.667 185.231,252.667 185.365 C 252.667 185.498,252.283 185.566,251.813 185.514 C 251.344 185.463,250.755 185.626,250.504 185.877 C 250.253 186.128,249.671 186.333,249.210 186.333 C 248.750 186.333,248.286 186.474,248.180 186.646 C 247.423 187.871,245.000 187.922,245.000 186.713 C 245.000 186.504,244.825 186.333,244.611 186.333 C 244.397 186.333,244.320 186.236,244.439 186.117 C 244.558 185.997,244.283 185.554,243.828 185.132 C 243.373 184.710,243.000 184.140,243.000 183.866 C 243.000 183.591,242.737 183.214,242.417 183.027 C 242.096 182.840,241.952 182.682,242.096 182.677 C 242.379 182.666,241.862 181.961,240.917 181.069 C 240.596 180.766,240.333 180.252,240.333 179.926 C 240.333 179.600,240.183 179.333,240.000 179.333 C 239.817 179.333,239.667 179.116,239.667 178.850 C 239.667 178.584,239.404 178.214,239.083 178.027 C 238.762 177.840,238.646 177.682,238.824 177.677 C 239.002 177.671,238.815 177.433,238.408 177.148 C 238.000 176.862,237.667 176.333,237.667 175.971 C 237.667 175.609,237.442 175.226,237.167 175.121 C 236.892 175.015,236.667 174.742,236.667 174.513 C 236.667 174.284,236.303 173.705,235.859 173.226 C 235.415 172.747,234.954 172.048,234.835 171.673 C 234.716 171.297,234.457 171.090,234.258 171.213 C 234.059 171.336,233.992 171.283,234.108 171.095 C 234.224 170.907,234.060 170.446,233.743 170.071 C 232.230 168.282,232.020 168.000,232.200 168.000 C 232.306 168.000,232.013 167.549,231.550 166.998 L 230.707 165.997 231.671 164.941 C 232.202 164.361,232.559 163.761,232.465 163.610 C 232.371 163.458,232.462 163.333,232.667 163.333 C 232.872 163.333,232.947 163.183,232.833 163.000 C 232.720 162.817,232.795 162.667,233.000 162.667 C 233.205 162.667,233.286 162.527,233.181 162.356 C 233.075 162.186,233.144 161.950,233.333 161.833 C 233.523 161.716,233.598 161.491,233.500 161.333 C 233.402 161.175,233.450 160.967,233.607 160.870 C 233.929 160.671,234.103 158.958,234.052 156.500 C 234.033 155.583,234.011 154.496,234.005 154.083 C 233.998 153.671,233.828 153.333,233.627 153.333 C 233.426 153.333,233.348 153.108,233.454 152.833 C 233.559 152.558,233.492 152.333,233.303 152.333 C 233.115 152.333,233.051 152.188,233.161 152.010 C 233.514 151.439,232.353 149.685,230.108 147.396 C 228.905 146.170,228.025 145.392,228.152 145.667 C 228.279 145.942,228.157 145.889,227.880 145.550 C 227.587 145.191,227.208 145.038,226.971 145.185 C 226.723 145.338,226.649 145.298,226.783 145.081 C 227.825 143.396,217.148 142.947,215.250 144.596 C 214.929 144.875,214.662 144.968,214.657 144.802 C 214.651 144.636,214.497 144.756,214.314 145.069 C 214.112 145.417,213.770 145.557,213.437 145.430 C 213.071 145.289,212.970 145.349,213.132 145.610 C 213.264 145.825,213.245 146.000,213.090 146.000 C 212.613 146.000,210.128 148.421,209.155 149.833 C 208.649 150.567,208.327 150.906,208.439 150.587 C 208.551 150.269,208.735 149.219,208.848 148.254 C 208.961 147.289,209.139 146.275,209.244 146.000 C 209.507 145.309,209.633 144.727,209.880 143.077 L 210.092 141.654 202.296 141.744 C 196.275 141.813,194.519 141.928,194.583 142.250 C 194.629 142.479,194.517 142.667,194.333 142.667 C 194.150 142.667,194.026 142.779,194.058 142.917 C 194.089 143.054,193.830 143.842,193.481 144.667 C 193.132 145.492,192.881 146.279,192.923 146.417 C 192.966 146.554,192.850 146.667,192.667 146.667 C 192.483 146.667,192.357 146.779,192.386 146.917 C 192.444 147.192,192.441 147.202,190.662 151.500 C 189.980 153.150,189.151 155.250,188.820 156.167 C 188.489 157.083,188.096 157.997,187.945 158.197 C 187.795 158.398,187.771 158.660,187.892 158.781 C 188.012 158.901,187.936 159.000,187.722 159.000 C 187.508 159.000,187.333 159.291,187.333 159.647 C 187.333 160.003,187.181 160.388,186.995 160.503 C 186.808 160.619,186.736 160.842,186.833 161.000 C 186.931 161.158,186.856 161.383,186.667 161.500 C 186.477 161.617,186.409 161.852,186.514 162.023 C 186.620 162.194,186.547 162.333,186.353 162.333 C 186.159 162.333,186.000 162.521,186.001 162.750 C 186.001 162.979,185.639 164.067,185.195 165.167 C 184.047 168.012,183.887 168.468,183.947 168.750 C 183.976 168.887,183.850 169.000,183.667 169.000 C 183.483 169.000,183.333 169.197,183.333 169.438 C 183.333 169.678,182.963 170.642,182.511 171.580 C 182.059 172.518,181.616 173.684,181.528 174.171 C 181.439 174.659,181.211 175.246,181.020 175.476 C 180.829 175.706,180.771 175.993,180.892 176.114 C 181.012 176.235,180.936 176.333,180.722 176.333 C 180.508 176.333,180.360 176.446,180.392 176.583 C 180.423 176.721,180.283 177.208,180.080 177.667 C 179.877 178.125,179.329 179.475,178.863 180.667 L 178.016 182.833 178.181 174.833 C 178.431 162.660,178.635 153.766,178.812 147.417 L 178.971 141.667 171.152 141.667 C 166.190 141.667,163.318 141.788,163.292 142.000 M258.399 191.750 C 258.481 193.178,258.607 193.491,259.083 193.454 C 259.404 193.428,259.667 193.517,259.667 193.651 C 259.667 193.785,260.186 194.175,260.820 194.516 C 261.873 195.083,263.667 198.560,263.667 200.034 C 263.667 201.024,259.222 200.182,259.090 199.167 C 258.833 197.187,258.134 196.646,256.242 196.957 C 255.956 197.005,255.301 198.466,255.106 199.492 C 254.843 200.880,257.197 204.330,258.048 203.803 C 258.205 203.707,258.333 203.789,258.333 203.987 C 258.333 204.186,258.746 204.526,259.250 204.743 C 260.107 205.113,262.883 207.333,262.489 207.333 C 262.391 207.333,262.485 207.661,262.699 208.061 C 263.180 208.960,263.371 213.333,262.930 213.333 C 262.755 213.333,262.673 213.519,262.749 213.746 C 262.824 213.973,262.462 214.610,261.945 215.162 C 261.427 215.715,261.002 216.288,261.002 216.436 C 261.001 216.585,260.850 216.613,260.667 216.500 C 260.483 216.387,260.333 216.453,260.333 216.647 C 260.333 216.841,259.808 217.000,259.167 217.000 L 258.000 217.000 258.000 218.667 C 258.000 220.296,257.978 220.333,257.000 220.333 C 256.037 220.333,256.000 220.278,256.000 218.833 C 256.000 218.008,255.850 217.315,255.667 217.292 C 255.004 217.209,254.826 217.152,254.417 216.892 C 254.188 216.746,253.850 216.720,253.667 216.833 C 253.483 216.947,253.333 216.880,253.333 216.686 C 253.333 216.492,253.177 216.333,252.985 216.333 C 252.601 216.333,251.004 214.834,250.952 214.424 C 250.935 214.283,250.773 213.792,250.594 213.333 C 250.414 212.875,250.236 212.317,250.199 212.093 C 250.161 211.869,250.042 211.598,249.935 211.490 C 249.152 210.708,250.160 210.047,252.296 209.943 L 254.528 209.833 254.464 210.751 C 254.429 211.255,254.537 211.753,254.705 211.857 C 254.873 211.961,254.925 212.186,254.819 212.356 C 254.714 212.527,254.811 212.667,255.036 212.667 C 255.261 212.667,255.345 212.766,255.224 212.887 C 254.866 213.245,256.433 213.878,257.286 213.720 C 258.281 213.537,259.101 211.682,258.888 210.099 C 258.689 208.619,257.660 207.542,255.378 206.426 C 253.499 205.506,251.558 203.887,251.911 203.533 C 252.021 203.423,251.927 203.333,251.703 203.333 C 251.478 203.333,251.387 203.183,251.500 203.000 C 251.613 202.817,251.538 202.667,251.333 202.667 C 251.128 202.667,251.047 202.527,251.152 202.356 C 251.258 202.186,251.207 201.962,251.040 201.858 C 250.589 201.579,250.886 198.637,251.536 196.963 C 252.132 195.426,252.990 194.212,253.276 194.499 C 253.370 194.592,253.691 194.446,253.990 194.175 C 254.290 193.904,254.902 193.627,255.351 193.560 C 256.079 193.450,256.178 193.251,256.267 191.718 C 256.425 189.030,258.244 189.057,258.399 191.750 " stroke="none" fill="#f4f4f4" fill-rule="evenodd"></path><path id="path1" d="" stroke="none" fill="#f4f4fc" fill-rule="evenodd"></path><path id="path2" d="" stroke="none" fill="#fcfcfc" fill-rule="evenodd"></path><path id="path3" d="" stroke="none" fill="#f8f4f4" fill-rule="evenodd"></path><path id="path4" d="" stroke="none" fill="#f4fcf8" fill-rule="evenodd"></path></g></svg>